<svg xmlns="http://www.w3.org/2000/svg" viewBox="0 0 64 64">
  <defs>
    <linearGradient id="bg" x1="8" y1="8" x2="56" y2="56" gradientUnits="userSpaceOnUse">
      <stop offset="0" stop-color="#14b8a6"/>
      <stop offset="0.55" stop-color="#2563eb"/>
      <stop offset="1" stop-color="#111827"/>
    </linearGradient>
  </defs>
  <rect width="64" height="64" rx="14" fill="url(#bg)"/>
  <path
    d="M18 18h15c7.2 0 11.5 3.3 11.5 9 0 3.3-1.5 5.9-4.4 7.4 3.8 1.4 5.9 4.4 5.9 8.4 0 6.2-4.8 9.2-12.2 9.2H18V18Zm8.3 6.8v7h6.1c2.6 0 3.9-1.3 3.9-3.5s-1.4-3.5-4-3.5h-6Zm0 13.4v7h7.3c2.7 0 4.1-1.2 4.1-3.5 0-2.2-1.5-3.5-4.2-3.5h-7.2Z"
    fill="#ffffff"
  />
  <circle cx="47" cy="18" r="4" fill="#facc15"/>
</svg>
