<svg xmlns="http://www.w3.org/2000/svg" viewBox="0 0 64 64" role="img" aria-label="Atlas notebook icon">
  <defs>
    <linearGradient id="cover" x1="8" y1="8" x2="56" y2="56" gradientUnits="userSpaceOnUse">
      <stop offset="0" stop-color="#35a27f"/>
      <stop offset="0.52" stop-color="#2f6f9f"/>
      <stop offset="1" stop-color="#18354f"/>
    </linearGradient>
    <linearGradient id="page" x1="20" y1="17" x2="48" y2="47" gradientUnits="userSpaceOnUse">
      <stop offset="0" stop-color="#ffffff"/>
      <stop offset="1" stop-color="#dfeff0"/>
    </linearGradient>
  </defs>
  <rect width="64" height="64" rx="14" fill="url(#cover)"/>
  <path d="M17 16c5-3 10-3 15 0v34c-5-3-10-3-15 0V16Z" fill="url(#page)"/>
  <path d="M32 16c5-3 10-3 15 0v34c-5-3-10-3-15 0V16Z" fill="#f7fbfb"/>
  <path d="M32 16v34" stroke="#2f6f9f" stroke-width="2" stroke-linecap="round"/>
  <path d="M22 24c3-2 7-2 10 0M22 31c3-2 7-2 10 0M36 24c3-2 6-2 9 0M36 31c3-2 6-2 9 0" stroke="#8ab5bd" stroke-width="1.6" stroke-linecap="round"/>
  <circle cx="40" cy="40" r="8" fill="none" stroke="#18354f" stroke-width="2"/>
  <path d="M40 34v12M34 40h12M36.5 36.5l7 7M43.5 36.5l-7 7" stroke="#18354f" stroke-width="1.4" stroke-linecap="round"/>
  <path d="M43 37l2.5-6 2.5 6-2.5 6-2.5-6Z" fill="#f0c85a" stroke="#18354f" stroke-width="1.2" stroke-linejoin="round"/>
</svg>
